<?xml version="1.0" encoding="iso-8859-1"?>
<!-- Generator: Adobe Illustrator 17.1.0, SVG Export Plug-In . SVG Version: 6.00 Build 0)  -->
<!DOCTYPE svg PUBLIC "-//W3C//DTD SVG 1.1//EN" "http://www.w3.org/Graphics/SVG/1.1/DTD/svg11.dtd">
<svg version="1.1" id="Capa_1" xmlns="http://www.w3.org/2000/svg" xmlns:xlink="http://www.w3.org/1999/xlink" x="0px" y="0px"
	 viewBox="0 0 298 298" style="enable-background:new 0 0 298 298;" xml:space="preserve">
<path d="M298,33c0-13.255-10.745-24-24-24H24C10.745,9,0,19.745,0,33v232c0,13.255,10.745,24,24,24h250c13.255,0,24-10.745,24-24V33
	z M91,39h43v34H91V39z M61,259H30v-34h31V259z M61,73H30V39h31V73z M134,259H91v-34h43V259z M123,176.708v-55.417
	c0-8.25,5.868-11.302,12.77-6.783l40.237,26.272c6.902,4.519,6.958,11.914,0.056,16.434l-40.321,26.277
	C128.84,188.011,123,184.958,123,176.708z M207,259h-43v-34h43V259z M207,73h-43V39h43V73z M268,259h-31v-34h31V259z M268,73h-31V39
	h31V73z"/>
<g>
</g>
<g>
</g>
<g>
</g>
<g>
</g>
<g>
</g>
<g>
</g>
<g>
</g>
<g>
</g>
<g>
</g>
<g>
</g>
<g>
</g>
<g>
</g>
<g>
</g>
<g>
</g>
<g>
</g>
</svg>
